<?xml version="1.0" encoding="utf-8"?>
<!-- Generator: Adobe Illustrator 23.0.3, SVG Export Plug-In . SVG Version: 6.00 Build 0)  -->
<svg version="1.1" id="Layer_1" xmlns="http://www.w3.org/2000/svg" xmlns:xlink="http://www.w3.org/1999/xlink" x="0px" y="0px"
	 viewBox="0 0 16 16" style="enable-background:new 0 0 16 16;" xml:space="preserve">
<style type="text/css">
	.st0{fill:#1E90FF;}
</style>
<g>
	<g>
		<path class="st0" d="M8,11.4c-1.88,0-3.4-1.53-3.4-3.4S6.12,4.6,8,4.6s3.4,1.53,3.4,3.4S9.88,11.4,8,11.4z M8,5.36
			C6.54,5.36,5.36,6.54,5.36,8S6.54,10.64,8,10.64S10.64,9.46,10.64,8S9.46,5.36,8,5.36z"/>
	</g>
	<g>
		<path class="st0" d="M8,4.11c-0.86,0-1.55-0.7-1.55-1.55S7.14,1,8,1s1.55,0.7,1.55,1.55S8.86,4.11,8,4.11z M8,1.54
			C7.44,1.54,6.99,2,6.99,2.55S7.44,3.56,8,3.56s1.01-0.45,1.01-1.01S8.56,1.54,8,1.54z"/>
	</g>
	<g>
		<path class="st0" d="M8,15c-0.86,0-1.55-0.7-1.55-1.55c0-0.86,0.7-1.55,1.55-1.55s1.55,0.7,1.55,1.55C9.55,14.3,8.86,15,8,15z
			 M8,12.44c-0.56,0-1.01,0.45-1.01,1.01S7.44,14.46,8,14.46S9.01,14,9.01,13.45S8.56,12.44,8,12.44z"/>
	</g>
	<g>
		<path class="st0" d="M2.55,9.55C1.7,9.55,1,8.86,1,8s0.7-1.55,1.55-1.55S4.11,7.14,4.11,8S3.41,9.55,2.55,9.55z M2.55,6.99
			C2,6.99,1.54,7.44,1.54,8S2,9.01,2.55,9.01S3.56,8.56,3.56,8S3.11,6.99,2.55,6.99z"/>
	</g>
	<g>
		<path class="st0" d="M13.45,9.55c-0.86,0-1.55-0.7-1.55-1.55s0.7-1.55,1.55-1.55C14.3,6.45,15,7.14,15,8S14.3,9.55,13.45,9.55z
			 M13.45,6.99c-0.56,0-1.01,0.45-1.01,1.01s0.45,1.01,1.01,1.01S14.46,8.56,14.46,8S14,6.99,13.45,6.99z"/>
	</g>
	<g>
		<path class="st0" d="M11.98,5.68c-0.86,0-1.55-0.7-1.55-1.55s0.7-1.55,1.55-1.55c0.86,0,1.55,0.7,1.55,1.55S12.83,5.68,11.98,5.68
			z M11.98,3.12c-0.56,0-1.01,0.45-1.01,1.01s0.45,1.01,1.01,1.01c0.56,0,1.01-0.45,1.01-1.01S12.53,3.12,11.98,3.12z"/>
	</g>
	<g>
		<path class="st0" d="M11.98,13.42c-0.86,0-1.55-0.7-1.55-1.55c0-0.86,0.7-1.55,1.55-1.55c0.86,0,1.55,0.7,1.55,1.55
			C13.53,12.72,12.83,13.42,11.98,13.42z M11.98,10.86c-0.56,0-1.01,0.45-1.01,1.01s0.45,1.01,1.01,1.01c0.56,0,1.01-0.45,1.01-1.01
			S12.53,10.86,11.98,10.86z"/>
	</g>
	<g>
		<path class="st0" d="M4.02,5.68c-0.86,0-1.55-0.7-1.55-1.55s0.7-1.55,1.55-1.55s1.55,0.7,1.55,1.55S4.88,5.68,4.02,5.68z
			 M4.02,3.12c-0.56,0-1.01,0.45-1.01,1.01s0.45,1.01,1.01,1.01s1.01-0.45,1.01-1.01S4.58,3.12,4.02,3.12z"/>
	</g>
	<g>
		<path class="st0" d="M4.02,13.42c-0.86,0-1.55-0.7-1.55-1.55c0-0.86,0.7-1.55,1.55-1.55s1.55,0.7,1.55,1.55
			C5.58,12.72,4.88,13.42,4.02,13.42z M4.02,10.86c-0.56,0-1.01,0.45-1.01,1.01s0.45,1.01,1.01,1.01s1.01-0.45,1.01-1.01
			S4.58,10.86,4.02,10.86z"/>
	</g>
</g>
</svg>
